<mxfile host="app.diagrams.net" modified="2024-03-17T00:16:08.497Z" agent="Mozilla/5.0 (X11; Linux x86_64; rv:123.0) Gecko/20100101 Firefox/123.0" etag="mj6JI1VPJRM86fSQ8i2X" version="24.0.7" type="github">
  <diagram name="Page-1" id="T63dCYmWQcPCzvDX1Ud9">
    <mxGraphModel dx="1216" dy="1316" grid="1" gridSize="10" guides="1" tooltips="1" connect="1" arrows="1" fold="1" page="1" pageScale="1" pageWidth="850" pageHeight="1100" math="0" shadow="0">
      <root>
        <mxCell id="0" />
        <mxCell id="1" parent="0" />
        <mxCell id="-t7VQIKIzFXDHeP94Z30-2" value="Player" style="shape=umlActor;verticalLabelPosition=bottom;verticalAlign=top;html=1;outlineConnect=0;" parent="1" vertex="1">
          <mxGeometry x="134" y="230" width="50" height="100" as="geometry" />
        </mxCell>
        <mxCell id="1Z0N6tDt2Vddo4Pwxsw3-9" value="" style="edgeStyle=none;html=1;endArrow=none;verticalAlign=bottom;rounded=0;" parent="1" source="-t7VQIKIzFXDHeP94Z30-2" target="1Z0N6tDt2Vddo4Pwxsw3-4" edge="1">
          <mxGeometry width="160" relative="1" as="geometry">
            <mxPoint x="450" y="580" as="sourcePoint" />
            <mxPoint x="610" y="580" as="targetPoint" />
          </mxGeometry>
        </mxCell>
        <mxCell id="1Z0N6tDt2Vddo4Pwxsw3-11" value="Black player" style="shape=umlActor;verticalLabelPosition=bottom;verticalAlign=top;html=1;outlineConnect=0;" parent="1" vertex="1">
          <mxGeometry x="200" y="510" width="50" height="100" as="geometry" />
        </mxCell>
        <mxCell id="Zvkzh892HXaCJd9scSEi-4" value="CChess" style="swimlane;whiteSpace=wrap;html=1;" parent="1" vertex="1">
          <mxGeometry x="325" y="50" width="865" height="640" as="geometry" />
        </mxCell>
        <mxCell id="1Z0N6tDt2Vddo4Pwxsw3-4" value="Select Piece" style="ellipse;whiteSpace=wrap;html=1;" parent="Zvkzh892HXaCJd9scSEi-4" vertex="1">
          <mxGeometry x="55" y="310" width="140" height="70" as="geometry" />
        </mxCell>
        <mxCell id="1Z0N6tDt2Vddo4Pwxsw3-5" value="Move piece" style="ellipse;whiteSpace=wrap;html=1;" parent="Zvkzh892HXaCJd9scSEi-4" vertex="1">
          <mxGeometry x="270" y="310" width="140" height="70" as="geometry" />
        </mxCell>
        <mxCell id="1Z0N6tDt2Vddo4Pwxsw3-8" value="&amp;lt;&amp;lt;extend&amp;gt;&amp;gt;" style="edgeStyle=none;html=1;startArrow=open;endArrow=none;startSize=12;verticalAlign=bottom;dashed=1;labelBackgroundColor=none;rounded=0;" parent="Zvkzh892HXaCJd9scSEi-4" source="1Z0N6tDt2Vddo4Pwxsw3-4" target="1Z0N6tDt2Vddo4Pwxsw3-5" edge="1">
          <mxGeometry width="160" relative="1" as="geometry">
            <mxPoint x="120" y="390" as="sourcePoint" />
            <mxPoint x="120" y="510" as="targetPoint" />
          </mxGeometry>
        </mxCell>
        <mxCell id="1Z0N6tDt2Vddo4Pwxsw3-14" value="Capture piece" style="ellipse;whiteSpace=wrap;html=1;" parent="Zvkzh892HXaCJd9scSEi-4" vertex="1">
          <mxGeometry x="270" y="120" width="140" height="70" as="geometry" />
        </mxCell>
        <mxCell id="1Z0N6tDt2Vddo4Pwxsw3-15" value="&amp;lt;&amp;lt;include&amp;gt;&amp;gt;" style="edgeStyle=none;html=1;endArrow=open;verticalAlign=bottom;dashed=1;labelBackgroundColor=none;rounded=0;" parent="Zvkzh892HXaCJd9scSEi-4" source="1Z0N6tDt2Vddo4Pwxsw3-14" target="1Z0N6tDt2Vddo4Pwxsw3-5" edge="1">
          <mxGeometry x="-0.3333" width="160" relative="1" as="geometry">
            <mxPoint x="320" y="470" as="sourcePoint" />
            <mxPoint x="480" y="470" as="targetPoint" />
            <mxPoint as="offset" />
          </mxGeometry>
        </mxCell>
        <mxCell id="1Z0N6tDt2Vddo4Pwxsw3-16" value="Check" style="ellipse;whiteSpace=wrap;html=1;" parent="Zvkzh892HXaCJd9scSEi-4" vertex="1">
          <mxGeometry x="540" y="250" width="140" height="70" as="geometry" />
        </mxCell>
        <mxCell id="1Z0N6tDt2Vddo4Pwxsw3-17" value="&amp;lt;&amp;lt;include&amp;gt;&amp;gt;" style="edgeStyle=none;html=1;endArrow=open;verticalAlign=bottom;dashed=1;labelBackgroundColor=none;rounded=0;" parent="Zvkzh892HXaCJd9scSEi-4" source="1Z0N6tDt2Vddo4Pwxsw3-16" target="1Z0N6tDt2Vddo4Pwxsw3-5" edge="1">
          <mxGeometry width="160" relative="1" as="geometry">
            <mxPoint x="320" y="470" as="sourcePoint" />
            <mxPoint x="500" y="350" as="targetPoint" />
          </mxGeometry>
        </mxCell>
        <mxCell id="1Z0N6tDt2Vddo4Pwxsw3-18" value="&amp;lt;&amp;lt;extend&amp;gt;&amp;gt;" style="edgeStyle=none;html=1;startArrow=open;endArrow=none;startSize=12;verticalAlign=bottom;dashed=1;labelBackgroundColor=none;rounded=0;" parent="Zvkzh892HXaCJd9scSEi-4" source="1Z0N6tDt2Vddo4Pwxsw3-14" target="1Z0N6tDt2Vddo4Pwxsw3-16" edge="1">
          <mxGeometry width="160" relative="1" as="geometry">
            <mxPoint x="260" y="410" as="sourcePoint" />
            <mxPoint x="420" y="410" as="targetPoint" />
          </mxGeometry>
        </mxCell>
        <mxCell id="1Z0N6tDt2Vddo4Pwxsw3-19" value="Checkmate" style="ellipse;whiteSpace=wrap;html=1;" parent="Zvkzh892HXaCJd9scSEi-4" vertex="1">
          <mxGeometry x="650" y="380" width="140" height="70" as="geometry" />
        </mxCell>
        <mxCell id="1Z0N6tDt2Vddo4Pwxsw3-20" value="&amp;lt;&amp;lt;include&amp;gt;&amp;gt;" style="edgeStyle=none;html=1;endArrow=open;verticalAlign=bottom;dashed=1;labelBackgroundColor=none;rounded=0;" parent="Zvkzh892HXaCJd9scSEi-4" source="1Z0N6tDt2Vddo4Pwxsw3-19" target="1Z0N6tDt2Vddo4Pwxsw3-16" edge="1">
          <mxGeometry width="160" relative="1" as="geometry">
            <mxPoint x="260" y="410" as="sourcePoint" />
            <mxPoint x="420" y="410" as="targetPoint" />
          </mxGeometry>
        </mxCell>
        <mxCell id="1Z0N6tDt2Vddo4Pwxsw3-22" value="&amp;lt;&amp;lt;include&amp;gt;&amp;gt;" style="edgeStyle=none;html=1;endArrow=open;verticalAlign=bottom;dashed=1;labelBackgroundColor=none;rounded=0;" parent="Zvkzh892HXaCJd9scSEi-4" source="1Z0N6tDt2Vddo4Pwxsw3-21" target="1Z0N6tDt2Vddo4Pwxsw3-5" edge="1">
          <mxGeometry width="160" relative="1" as="geometry">
            <mxPoint x="260" y="410" as="sourcePoint" />
            <mxPoint x="420" y="410" as="targetPoint" />
          </mxGeometry>
        </mxCell>
        <mxCell id="1Z0N6tDt2Vddo4Pwxsw3-23" value="&amp;lt;&amp;lt;extend&amp;gt;&amp;gt;" style="edgeStyle=none;html=1;startArrow=open;endArrow=none;startSize=12;verticalAlign=bottom;dashed=1;labelBackgroundColor=none;rounded=0;" parent="Zvkzh892HXaCJd9scSEi-4" source="1Z0N6tDt2Vddo4Pwxsw3-14" target="1Z0N6tDt2Vddo4Pwxsw3-21" edge="1">
          <mxGeometry width="160" relative="1" as="geometry">
            <mxPoint x="260" y="410" as="sourcePoint" />
            <mxPoint x="420" y="410" as="targetPoint" />
          </mxGeometry>
        </mxCell>
        <mxCell id="1Z0N6tDt2Vddo4Pwxsw3-24" value="Promote pawn" style="ellipse;whiteSpace=wrap;html=1;" parent="Zvkzh892HXaCJd9scSEi-4" vertex="1">
          <mxGeometry x="130" y="480" width="140" height="70" as="geometry" />
        </mxCell>
        <mxCell id="1Z0N6tDt2Vddo4Pwxsw3-25" value="&amp;lt;&amp;lt;include&amp;gt;&amp;gt;" style="edgeStyle=none;html=1;endArrow=open;verticalAlign=bottom;dashed=1;labelBackgroundColor=none;rounded=0;" parent="Zvkzh892HXaCJd9scSEi-4" source="1Z0N6tDt2Vddo4Pwxsw3-24" target="1Z0N6tDt2Vddo4Pwxsw3-5" edge="1">
          <mxGeometry width="160" relative="1" as="geometry">
            <mxPoint x="420" y="420" as="sourcePoint" />
            <mxPoint x="580" y="420" as="targetPoint" />
          </mxGeometry>
        </mxCell>
        <mxCell id="1Z0N6tDt2Vddo4Pwxsw3-27" value="Castle" style="ellipse;whiteSpace=wrap;html=1;" parent="Zvkzh892HXaCJd9scSEi-4" vertex="1">
          <mxGeometry x="490" y="470" width="140" height="70" as="geometry" />
        </mxCell>
        <mxCell id="1Z0N6tDt2Vddo4Pwxsw3-30" value="&amp;lt;&amp;lt;include&amp;gt;&amp;gt;" style="edgeStyle=none;html=1;endArrow=open;verticalAlign=bottom;dashed=1;labelBackgroundColor=none;rounded=0;" parent="Zvkzh892HXaCJd9scSEi-4" source="1Z0N6tDt2Vddo4Pwxsw3-27" target="1Z0N6tDt2Vddo4Pwxsw3-5" edge="1">
          <mxGeometry width="160" relative="1" as="geometry">
            <mxPoint x="420" y="420" as="sourcePoint" />
            <mxPoint x="580" y="420" as="targetPoint" />
          </mxGeometry>
        </mxCell>
        <mxCell id="1Z0N6tDt2Vddo4Pwxsw3-21" value="Stalemate" style="ellipse;whiteSpace=wrap;html=1;" parent="Zvkzh892HXaCJd9scSEi-4" vertex="1">
          <mxGeometry x="680" y="70" width="140" height="70" as="geometry" />
        </mxCell>
        <mxCell id="Cz870lSFTtGMj72EZYeq-16" value="&amp;lt;&amp;lt;extend&amp;gt;&amp;gt;" style="edgeStyle=none;html=1;startArrow=open;endArrow=none;startSize=12;verticalAlign=bottom;dashed=1;labelBackgroundColor=none;rounded=0;" edge="1" parent="Zvkzh892HXaCJd9scSEi-4" source="1Z0N6tDt2Vddo4Pwxsw3-14" target="1Z0N6tDt2Vddo4Pwxsw3-24">
          <mxGeometry x="0.631" y="-1" width="160" relative="1" as="geometry">
            <mxPoint x="295" y="538.8199999999999" as="sourcePoint" />
            <mxPoint x="455" y="538.8199999999999" as="targetPoint" />
            <Array as="points">
              <mxPoint x="195" y="400" />
            </Array>
            <mxPoint as="offset" />
          </mxGeometry>
        </mxCell>
        <mxCell id="Cz870lSFTtGMj72EZYeq-3" value="" style="edgeStyle=none;html=1;endArrow=block;endFill=0;endSize=12;verticalAlign=bottom;rounded=0;" edge="1" parent="1">
          <mxGeometry width="160" relative="1" as="geometry">
            <mxPoint x="159" y="460" as="sourcePoint" />
            <mxPoint x="159" y="362" as="targetPoint" />
          </mxGeometry>
        </mxCell>
        <mxCell id="Cz870lSFTtGMj72EZYeq-4" value="&lt;div&gt;White player&lt;/div&gt;" style="shape=umlActor;verticalLabelPosition=bottom;verticalAlign=top;html=1;outlineConnect=0;" vertex="1" parent="1">
          <mxGeometry x="70" y="510" width="50" height="100" as="geometry" />
        </mxCell>
        <mxCell id="Cz870lSFTtGMj72EZYeq-5" value="" style="endArrow=none;html=1;rounded=0;" edge="1" parent="1">
          <mxGeometry width="50" height="50" relative="1" as="geometry">
            <mxPoint x="100" y="460" as="sourcePoint" />
            <mxPoint x="160" y="460" as="targetPoint" />
          </mxGeometry>
        </mxCell>
        <mxCell id="Cz870lSFTtGMj72EZYeq-6" value="" style="endArrow=none;html=1;rounded=0;" edge="1" parent="1">
          <mxGeometry width="50" height="50" relative="1" as="geometry">
            <mxPoint x="100" y="460" as="sourcePoint" />
            <mxPoint x="100" y="500" as="targetPoint" />
          </mxGeometry>
        </mxCell>
        <mxCell id="Cz870lSFTtGMj72EZYeq-7" value="" style="endArrow=none;html=1;rounded=0;" edge="1" parent="1">
          <mxGeometry width="50" height="50" relative="1" as="geometry">
            <mxPoint x="224.66" y="460" as="sourcePoint" />
            <mxPoint x="224.66" y="500" as="targetPoint" />
          </mxGeometry>
        </mxCell>
        <mxCell id="Cz870lSFTtGMj72EZYeq-9" value="" style="endArrow=none;html=1;rounded=0;" edge="1" parent="1">
          <mxGeometry width="50" height="50" relative="1" as="geometry">
            <mxPoint x="160" y="460" as="sourcePoint" />
            <mxPoint x="225" y="460" as="targetPoint" />
          </mxGeometry>
        </mxCell>
        <mxCell id="Cz870lSFTtGMj72EZYeq-11" value="" style="edgeStyle=none;html=1;endArrow=none;verticalAlign=bottom;rounded=0;" edge="1" parent="1" source="-t7VQIKIzFXDHeP94Z30-2" target="1Z0N6tDt2Vddo4Pwxsw3-5">
          <mxGeometry width="160" relative="1" as="geometry">
            <mxPoint x="220" y="247" as="sourcePoint" />
            <mxPoint x="431" y="330" as="targetPoint" />
            <Array as="points">
              <mxPoint x="280" y="300" />
              <mxPoint x="450" y="300" />
            </Array>
          </mxGeometry>
        </mxCell>
        <mxCell id="Cz870lSFTtGMj72EZYeq-13" value="" style="edgeStyle=none;html=1;endArrow=none;verticalAlign=bottom;rounded=0;" edge="1" parent="1" source="-t7VQIKIzFXDHeP94Z30-2" target="1Z0N6tDt2Vddo4Pwxsw3-16">
          <mxGeometry width="160" relative="1" as="geometry">
            <mxPoint x="194" y="300" as="sourcePoint" />
            <mxPoint x="405" y="383" as="targetPoint" />
            <Array as="points">
              <mxPoint x="560" y="280" />
            </Array>
          </mxGeometry>
        </mxCell>
        <mxCell id="Cz870lSFTtGMj72EZYeq-14" value="" style="edgeStyle=none;html=1;endArrow=none;verticalAlign=bottom;rounded=0;entryX=0.094;entryY=0.242;entryDx=0;entryDy=0;entryPerimeter=0;" edge="1" parent="1" source="-t7VQIKIzFXDHeP94Z30-2" target="1Z0N6tDt2Vddo4Pwxsw3-21">
          <mxGeometry width="160" relative="1" as="geometry">
            <mxPoint x="204" y="310" as="sourcePoint" />
            <mxPoint x="950" y="140" as="targetPoint" />
            <Array as="points">
              <mxPoint x="450" y="140" />
            </Array>
          </mxGeometry>
        </mxCell>
      </root>
    </mxGraphModel>
  </diagram>
</mxfile>
